<svg width="14" height="13" viewBox="0 0 14 13" fill="none" xmlns="http://www.w3.org/2000/svg">
<g id="Group">
<path id="Vector" d="M0.0718457 0.503334C0.0844588 0.52383 0.156984 0.627889 0.232663 0.736677C1.17392 2.06894 1.78723 3.68027 1.97643 5.32628C2.0253 5.74882 2.04107 6.02473 2.04107 6.4993C2.04107 6.97387 2.0253 7.24978 1.97643 7.67232C1.78565 9.32622 1.16761 10.9486 0.218473 12.284C0.136488 12.3991 0.0718457 12.4968 0.0749989 12.5C0.0781522 12.5031 1.41041 11.1725 3.03593 9.54064L5.99055 6.5734L5.99529 6.73737C6.00159 6.92184 5.97794 7.31915 5.94168 7.6266C5.75091 9.30414 5.15651 10.8792 4.20422 12.243C4.11908 12.3628 4.04183 12.4763 4.02921 12.4953C4.0166 12.5142 5.34729 11.1914 6.98542 9.55483C8.62197 7.9167 9.96369 6.57813 9.96369 6.57813C9.96369 6.57813 9.95896 6.71845 9.95423 6.88873C9.92112 7.87571 9.72246 8.92102 9.38349 9.87331C9.08077 10.72 8.64089 11.5714 8.13952 12.2745C8.06384 12.3802 7.99289 12.4811 7.98343 12.4984C7.97397 12.5158 9.32357 11.1725 10.9822 9.51541L13.9999 6.4993L10.9822 3.48319C9.32357 1.82614 7.97397 0.482838 7.98343 0.500181C7.99289 0.517524 8.06384 0.618429 8.13952 0.724064C8.43435 1.13714 8.674 1.54076 8.92311 2.04529C9.47651 3.16313 9.8013 4.31565 9.92585 5.6085C9.93846 5.75355 9.97 6.42047 9.96211 6.42047C9.96211 6.42047 8.62197 5.0819 6.98384 3.44377C5.34729 1.80722 4.0166 0.484414 4.02921 0.503334C4.04183 0.522254 4.11908 0.635772 4.20422 0.755597C5.00515 1.90181 5.5554 3.20412 5.82343 4.59156C5.92907 5.14339 5.99844 5.79612 5.99686 6.23127V6.42835L3.02332 3.4485C1.38834 1.80879 0.0608092 0.484414 0.0718457 0.503334Z" fill="#3FD8F9"/>
</g>
</svg>
