<svg width="253" height="37" viewBox="0 0 253 37" fill="none" xmlns="http://www.w3.org/2000/svg">
<g id="Group">
<path id="Vector" d="M80.8308 5.91355V11.8271H81.7812H82.7316V9.39835V6.96955H84.379L86.0052 6.99067L88.075 9.39835L90.1658 11.8271H91.3274H92.489L91.771 10.919C88.2439 6.56827 87.7582 5.89243 87.9482 5.63899C89.2154 4.03387 91.8554 0.865877 92.1089 0.654677C92.6791 0.168918 92.489 -4.29153e-05 91.3908 -4.29153e-05C90.3559 -4.29153e-05 90.2926 0.0421972 89.0887 1.3094C88.4129 2.0486 87.4414 3.14684 86.9345 3.73819L86.0052 4.85755H84.379H82.7316V2.42876V-4.29153e-05H81.7812H80.8308V5.91355Z" fill="#FECC00"/>
<path id="Vector_2" d="M37.9573 0.358866C36.8168 0.760146 35.613 1.79502 35.1272 2.80878C34.6415 3.75918 34.5781 4.13934 34.5781 5.9979C34.5992 8.99694 35.2751 10.3275 37.4293 11.468C38.1896 11.8904 38.612 11.9326 41.9701 11.9326H45.6661L45.7295 10.9189L45.7928 9.92622H42.5192C38.7388 9.92622 37.8095 9.6939 37.1125 8.55342C36.5212 7.5819 36.4789 4.5195 37.0492 3.54798C37.7672 2.3019 38.4853 2.11182 42.3292 2.11182H45.7717V1.16143V0.211026L42.0335 0.232146C39.9637 0.232146 38.1263 0.295506 37.9573 0.358866Z" fill="#FECC00"/>
<path id="Vector_3" d="M48.7285 6.01915V11.8271H49.7845H50.8405V9.71515V7.60315H53.037H55.2335L56.7752 9.71515L58.3381 11.806L59.5631 11.8271C60.2178 11.8271 60.7669 11.7849 60.7669 11.7215C60.7669 11.6582 60.0699 10.6867 59.2463 9.56731C57.8312 7.70875 57.7467 7.51867 58.1058 7.30747C60.4712 5.89243 61.0626 3.29467 59.4363 1.49948C58.4015 0.380117 57.6411 0.211157 53.0159 0.211157H48.7285V6.01915ZM57.6623 2.53436C58.7394 3.40028 58.4648 5.00539 57.1554 5.47003C56.7752 5.59675 55.2124 5.70235 53.6706 5.70235H50.8405V3.90715V2.11196H53.9874C56.7963 2.11196 57.1765 2.1542 57.6623 2.53436Z" fill="#FECC00"/>
<path id="Vector_4" d="M63.0901 6.01915V11.8271H64.1461H65.2021V6.01915V0.211157H64.1461H63.0901V6.01915Z" fill="#FECC00"/>
<path id="Vector_5" d="M70.5878 0.485717C69.215 1.01372 68.3913 1.71068 67.8633 2.7878C67.3776 3.73819 67.3142 4.16059 67.3142 5.93467C67.3142 7.07515 67.4198 8.25787 67.5465 8.59579C67.99 9.77851 68.8348 10.75 69.912 11.2991C70.9468 11.806 71.158 11.8271 74.6428 11.8271H78.2966V10.8767V9.92635H74.8329C71.6016 9.92635 71.3481 9.90523 70.6723 9.44059C69.6374 8.76475 69.215 7.77211 69.215 6.06139C69.215 4.43515 69.5318 3.50587 70.3555 2.74555C70.9257 2.23868 71.0313 2.21756 74.6217 2.1542L78.2966 2.09084V1.14044V0.211157L74.7696 0.232277C72.5942 0.232277 70.968 0.337877 70.5878 0.485717Z" fill="#FECC00"/>
<path id="Vector_6" d="M94.5588 6.01915V11.8271H99.9444H105.33V10.8767V9.92635H100.895H96.4596V8.44795V6.96955H100.895H105.33V6.12475V5.27995L100.958 5.23771L96.5652 5.17435L96.5019 3.6326L96.4385 2.11196H100.895H105.33V1.16156V0.211157H99.9444H94.5588V6.01915Z" fill="#FECC00"/>
<path id="Vector_7" d="M107.231 1.16156V2.11196H109.66H112.089V6.96955V11.8271H113.145H114.201V6.96955V2.11196H116.629H119.058V1.16156V0.211157H113.145H107.231V1.16156Z" fill="#FECC00"/>
<path id="Vector_8" d="M129.618 6.01915V11.8271H130.674H131.73V9.60955V7.39195H135.32C139.333 7.39195 139.65 7.30747 140.769 6.04027C142.332 4.24507 141.699 1.6262 139.439 0.612437C138.7 0.274517 138.003 0.211157 134.116 0.211157H129.618V6.01915ZM139.143 2.72444C139.903 3.48475 139.924 3.99163 139.206 4.83643L138.657 5.49115H135.194H131.73V3.80155V2.11196H135.13H138.531L139.143 2.72444Z" fill="#FECC00"/>
<path id="Vector_9" d="M143.98 3.92827C143.98 8.13115 144.128 8.89147 145.226 10.1587C146.472 11.6371 147.127 11.8271 151.329 11.8271H154.962V10.8767V9.92635H151.646C147.697 9.92635 147.105 9.73627 146.366 8.23675C145.923 7.37083 145.881 7.01179 145.881 3.75931V0.211157H144.93H143.98V3.92827Z" fill="#FECC00"/>
<path id="Vector_10" d="M161.045 0.506837C159.862 0.929236 158.637 2.00636 158.215 2.99899C157.898 3.73819 157.813 4.62523 157.75 7.85659L157.666 11.8271H158.743H159.82V9.29275V6.75835L164.002 6.80059L168.162 6.86395L168.226 9.33499L168.289 11.8271H169.218H170.169V7.85659C170.169 4.45627 170.105 3.78043 169.767 3.06236C169.239 1.90076 168.606 1.3094 167.338 0.718037C166.409 0.295637 165.945 0.211157 164.044 0.232277C162.777 0.232277 161.488 0.337877 161.045 0.506837ZM166.726 2.53436C167.423 2.95676 167.909 3.59035 168.162 4.37179L168.289 4.85755H164.065C160.158 4.85755 159.82 4.83643 159.82 4.47739C159.82 3.94939 160.517 2.97787 161.214 2.51324C162.122 1.92188 165.754 1.943 166.726 2.53436Z" fill="#FECC00"/>
<path id="Vector_11" d="M172.703 2.30204C172.703 4.18171 172.766 4.49851 173.294 5.51227C174.076 7.01179 175.301 7.94107 176.927 8.25787L178.194 8.51131V10.1587V11.8271H179.25H180.306V10.1587V8.49019L181.214 8.34235C184.129 7.85659 185.586 5.91355 185.755 2.2598L185.861 0.211157H184.762H183.685V2.1542C183.685 4.37179 183.368 5.17435 182.165 5.93467C181.552 6.29371 181.172 6.33595 179.039 6.29371C176.99 6.23035 176.526 6.16699 176.04 5.80795C175.026 5.04763 174.73 4.28731 174.646 2.1542L174.561 0.211157H173.632H172.703V2.30204Z" fill="#FECC00"/>
<path id="Vector_12" d="M188.12 6.01915V11.8271H193.506H198.892V10.8767V9.92635H194.562H190.232V8.44795V6.96955H194.562H198.892V6.12475V5.27995H194.562H190.232V3.69595V2.11196H194.562H198.892V1.16156V0.211157H193.506H188.12V6.01915Z" fill="#FECC00"/>
<path id="Vector_13" d="M202.06 6.01915V11.8271H206.347C210.444 11.8271 210.698 11.806 211.585 11.3414C213.507 10.3065 214.478 8.15227 214.246 5.27995C214.119 3.44251 213.591 2.2598 212.577 1.45724C211.183 0.337877 210.592 0.232277 206.136 0.211157H202.06V6.01915ZM210.824 2.53436C211.965 3.23131 212.261 4.05499 212.176 6.29371C212.092 8.21563 212.092 8.23675 211.289 9.01819L210.508 9.82075L207.34 9.88411L204.172 9.94747V6.04027V2.11196H207.149C209.768 2.11196 210.233 2.17532 210.824 2.53436Z" fill="#FECC00"/>
<path id="Vector_14" d="M0.574951 23.7389C0.574951 29.3356 0.617191 30.0748 0.997351 31.2787C1.73655 33.6864 3.70071 35.6928 6.15063 36.5587C7.26999 36.9388 8.00919 36.96 22.1173 36.96H36.9013V34.5312V32.1024H22.3497H7.81911L7.10103 31.6166C6.72087 31.3632 6.17175 30.814 5.91831 30.4339C5.43255 29.7369 5.43255 29.6102 5.43255 23.6333V17.5296H3.00375H0.574951V23.7389Z" fill="#FECC00"/>
<path id="Vector_15" d="M42.0969 18.0578C39.7526 19.0293 38.0419 20.8879 37.3027 23.2956C36.9225 24.5416 36.8592 25.133 36.9436 27.7307C37.007 30.4552 37.0704 30.8354 37.5984 31.9759C38.7177 34.4258 40.4496 35.9464 42.8572 36.6434C43.871 36.9391 44.927 36.9813 49.1932 36.9179L54.3254 36.8546L55.5926 36.2421C57.2188 35.4395 58.8239 33.8344 59.6265 32.2082C60.239 30.9621 60.239 30.8987 60.239 27.245V23.549L59.5631 22.1551C58.7395 20.4655 57.2188 18.9871 55.5292 18.2056C54.3254 17.6354 54.3043 17.6354 48.8342 17.572C43.4275 17.5298 43.3219 17.5298 42.0969 18.0578ZM53.7552 22.662C54.1142 22.8732 54.6844 23.4012 54.9801 23.8447C55.5081 24.6472 55.5292 24.7739 55.4448 27.3928C55.3814 30.413 55.2124 30.8565 53.7763 31.6591C53.0582 32.0603 52.6569 32.1026 48.5808 32.1026C44.3356 32.1026 44.1244 32.0815 43.4486 31.6379C42.0547 30.6875 41.8646 30.2229 41.8012 27.4562C41.7379 25.1541 41.759 24.8584 42.2025 24.077C43.174 22.3663 43.8076 22.1762 48.9398 22.2396C52.4246 22.2818 53.1638 22.3452 53.7552 22.662Z" fill="#FECC00"/>
<path id="Vector_16" d="M62.8789 23.1899C62.8789 29.2935 63.0267 30.7297 63.8927 32.4827C64.5685 33.8766 66.3215 35.5451 67.8843 36.2843C69.0459 36.8334 69.2571 36.8545 72.4885 36.8545H75.8677L77.2827 36.1575C79.0568 35.2916 80.8098 33.4542 81.4856 31.7435C81.9503 30.5819 81.9714 30.2017 82.0559 24.0135L82.1403 17.5297H79.6904H77.2405V23.3799C77.2405 29.9694 77.1349 30.4974 75.741 31.49C75.1074 31.9335 74.7483 31.9969 72.7631 32.0603C70.1019 32.1447 69.2783 31.8702 68.4123 30.5607L67.8421 29.7159L67.7787 23.6123L67.7154 17.5297H65.2866H62.8789V23.1899Z" fill="#FECC00"/>
<path id="Vector_17" d="M84.6326 27.2448V36.96L108.034 36.9177L131.413 36.8544L132.786 36.1785C135.13 35.0169 136.693 33.1584 137.306 30.7296C137.707 29.2512 137.749 25.6608 137.411 24.0345C136.883 21.5424 135.173 19.367 132.849 18.2265L131.625 17.6352L108.139 17.5718L84.6326 17.5296V27.2448ZM130.569 22.5773C132.343 23.4009 132.786 24.3302 132.786 27.2236C132.786 29.6102 132.321 30.814 131.118 31.6166L130.4 32.1024H109.955H89.4902V27.1392V22.176H109.618C128.71 22.176 129.766 22.1971 130.569 22.5773Z" fill="#FECC00"/>
<path id="Vector_18" d="M139.544 27.2448V36.96H148.52H157.496V34.5312V32.1024H150.949H144.402V30.8352V29.568H150.949H157.496V27.3504V25.1328H150.949H144.402V23.6544V22.176H150.949H157.496V19.8528V17.5296H148.52H139.544V27.2448Z" fill="#FECC00"/>
<path id="Vector_19" d="M160.242 27.2448V36.96H162.671H165.1V33.792V30.624H203.496L241.871 30.6451L244.194 33.792L246.517 36.9388L249.537 36.96C251.903 36.96 252.536 36.8966 252.41 36.7065C252.304 36.5587 251.142 34.9747 249.812 33.2006L247.404 29.9692L248.587 28.7654C250.171 27.1603 250.741 25.8931 250.72 23.9712C250.699 21.3523 249.389 19.3248 246.939 18.1421L245.672 17.5296H202.968H160.242V27.2448ZM244.827 22.4717C246.116 23.0208 246.348 24.1613 245.377 25.1539L244.764 25.7664H204.932H165.1V23.9712V22.176H204.594C238.175 22.176 244.215 22.2182 244.827 22.4717Z" fill="#FECC00"/>
</g>
</svg>
