<svg width="25" height="25" viewBox="0 0 25 25" fill="none" xmlns="http://www.w3.org/2000/svg">
<g id="Social Icons" clip-path="url(#clip0_4577_5309)">
<path id="Vector" d="M12.5 0.959961C5.87264 0.959961 0.5 6.3326 0.5 12.96C0.5 18.5875 4.37456 23.3097 9.60128 24.6067V16.6272H7.12688V12.96H9.60128V11.3798C9.60128 7.29548 11.4498 5.40236 15.4597 5.40236C16.22 5.40236 17.5318 5.55164 18.0685 5.70044V9.02444C17.7853 8.99468 17.2933 8.9798 16.6822 8.9798C14.7147 8.9798 13.9544 9.72524 13.9544 11.663V12.96H17.8741L17.2006 16.6272H13.9544V24.8721C19.8963 24.1545 24.5005 19.0953 24.5005 12.96C24.5 6.3326 19.1274 0.959961 12.5 0.959961Z" fill="#3FD8F9"/>
</g>
<defs>
<clipPath id="clip0_4577_5309">
<rect width="24" height="24" fill="white" transform="translate(0.5 0.959961)"/>
</clipPath>
</defs>
</svg>
