<svg width="25" height="24" viewBox="0 0 25 24" fill="none" xmlns="http://www.w3.org/2000/svg">
<path d="M21.125 10.8327V19.4999C21.125 19.8977 20.967 20.2792 20.6857 20.5605C20.4044 20.8418 20.0228 20.9999 19.625 20.9999H15.875C15.4772 20.9999 15.0956 20.8418 14.8143 20.5605C14.533 20.2792 14.375 19.8977 14.375 19.4999V15.7499C14.375 15.551 14.296 15.3602 14.1553 15.2195C14.0147 15.0789 13.8239 14.9999 13.625 14.9999H10.625C10.4261 14.9999 10.2353 15.0789 10.0947 15.2195C9.95402 15.3602 9.875 15.551 9.875 15.7499V19.4999C9.875 19.8977 9.71696 20.2792 9.43566 20.5605C9.15436 20.8418 8.77282 20.9999 8.375 20.9999H4.625C4.22718 20.9999 3.84564 20.8418 3.56434 20.5605C3.28304 20.2792 3.125 19.8977 3.125 19.4999V10.8327C3.12497 10.6251 3.16803 10.4197 3.25146 10.2296C3.33489 10.0395 3.45687 9.86883 3.60969 9.72831L11.1097 2.65206L11.12 2.64175C11.3961 2.39062 11.756 2.25146 12.1292 2.25146C12.5025 2.25146 12.8623 2.39062 13.1384 2.64175C13.1416 2.64541 13.1451 2.64886 13.1488 2.65206L20.6488 9.72831C20.8 9.86957 20.9204 10.0406 21.0024 10.2307C21.0844 10.4207 21.1261 10.6257 21.125 10.8327Z" fill="#6F45E9"/>
</svg>
