<svg width="25" height="25" viewBox="0 0 25 25" fill="none" xmlns="http://www.w3.org/2000/svg">
<g id="Social Icons" clip-path="url(#clip0_4577_5307)">
<path id="Vector" d="M12.5 3.1209C15.7063 3.1209 16.0859 3.13496 17.3469 3.19121C18.5188 3.24277 19.1516 3.43965 19.5734 3.60371C20.1313 3.81934 20.5344 4.08184 20.9516 4.49902C21.3734 4.9209 21.6313 5.31934 21.8469 5.87715C22.0109 6.29902 22.2078 6.93652 22.2594 8.10371C22.3156 9.36934 22.3297 9.74902 22.3297 12.9506C22.3297 16.1568 22.3156 16.5365 22.2594 17.7975C22.2078 18.9693 22.0109 19.6021 21.8469 20.024C21.6313 20.5818 21.3688 20.985 20.9516 21.4021C20.5297 21.824 20.1313 22.0818 19.5734 22.2975C19.1516 22.4615 18.5141 22.6584 17.3469 22.71C16.0813 22.7662 15.7016 22.7803 12.5 22.7803C9.29375 22.7803 8.91406 22.7662 7.65313 22.71C6.48125 22.6584 5.84844 22.4615 5.42656 22.2975C4.86875 22.0818 4.46563 21.8193 4.04844 21.4021C3.62656 20.9803 3.36875 20.5818 3.15313 20.024C2.98906 19.6021 2.79219 18.9646 2.74063 17.7975C2.68438 16.5318 2.67031 16.1521 2.67031 12.9506C2.67031 9.74434 2.68438 9.36465 2.74063 8.10371C2.79219 6.93184 2.98906 6.29902 3.15313 5.87715C3.36875 5.31934 3.63125 4.91621 4.04844 4.49902C4.47031 4.07715 4.86875 3.81934 5.42656 3.60371C5.84844 3.43965 6.48594 3.24277 7.65313 3.19121C8.91406 3.13496 9.29375 3.1209 12.5 3.1209ZM12.5 0.959961C9.24219 0.959961 8.83438 0.974023 7.55469 1.03027C6.27969 1.08652 5.40313 1.29277 4.64375 1.58809C3.85156 1.89746 3.18125 2.30527 2.51563 2.97559C1.84531 3.64121 1.4375 4.31152 1.12813 5.09902C0.832813 5.86309 0.626563 6.73496 0.570313 8.00996C0.514063 9.29434 0.5 9.70215 0.5 12.96C0.5 16.2178 0.514063 16.6256 0.570313 17.9053C0.626563 19.1803 0.832813 20.0568 1.12813 20.8162C1.4375 21.6084 1.84531 22.2787 2.51563 22.9443C3.18125 23.61 3.85156 24.0225 4.63906 24.3271C5.40313 24.6225 6.275 24.8287 7.55 24.885C8.82969 24.9412 9.2375 24.9553 12.4953 24.9553C15.7531 24.9553 16.1609 24.9412 17.4406 24.885C18.7156 24.8287 19.5922 24.6225 20.3516 24.3271C21.1391 24.0225 21.8094 23.61 22.475 22.9443C23.1406 22.2787 23.5531 21.6084 23.8578 20.8209C24.1531 20.0568 24.3594 19.185 24.4156 17.91C24.4719 16.6303 24.4859 16.2225 24.4859 12.9646C24.4859 9.70684 24.4719 9.29902 24.4156 8.01934C24.3594 6.74434 24.1531 5.86777 23.8578 5.1084C23.5625 4.31152 23.1547 3.64121 22.4844 2.97559C21.8188 2.30996 21.1484 1.89746 20.3609 1.59277C19.5969 1.29746 18.725 1.09121 17.45 1.03496C16.1656 0.974023 15.7578 0.959961 12.5 0.959961Z" fill="#3FD8F9"/>
<path id="Vector_2" d="M12.5 6.7959C9.09688 6.7959 6.33594 9.55684 6.33594 12.96C6.33594 16.3631 9.09688 19.124 12.5 19.124C15.9031 19.124 18.6641 16.3631 18.6641 12.96C18.6641 9.55684 15.9031 6.7959 12.5 6.7959ZM12.5 16.9584C10.2922 16.9584 8.50156 15.1678 8.50156 12.96C8.50156 10.7521 10.2922 8.96152 12.5 8.96152C14.7078 8.96152 16.4984 10.7521 16.4984 12.96C16.4984 15.1678 14.7078 16.9584 12.5 16.9584Z" fill="#3FD8F9"/>
<path id="Vector_3" d="M20.3469 6.55235C20.3469 7.34922 19.7 7.99141 18.9078 7.99141C18.1109 7.99141 17.4688 7.34453 17.4688 6.55235C17.4688 5.75547 18.1156 5.11328 18.9078 5.11328C19.7 5.11328 20.3469 5.76016 20.3469 6.55235Z" fill="#3FD8F9"/>
</g>
<defs>
<clipPath id="clip0_4577_5307">
<rect width="24" height="24" fill="white" transform="translate(0.5 0.959961)"/>
</clipPath>
</defs>
</svg>
