<svg width="25" height="24" viewBox="0 0 25 24" fill="none" xmlns="http://www.w3.org/2000/svg">
<path d="M19.875 3H17.625V2.25C17.625 2.05109 17.546 1.86032 17.4053 1.71967C17.2647 1.57902 17.0739 1.5 16.875 1.5C16.6761 1.5 16.4853 1.57902 16.3447 1.71967C16.204 1.86032 16.125 2.05109 16.125 2.25V3H8.625V2.25C8.625 2.05109 8.54598 1.86032 8.40533 1.71967C8.26468 1.57902 8.07391 1.5 7.875 1.5C7.67609 1.5 7.48532 1.57902 7.34467 1.71967C7.20402 1.86032 7.125 2.05109 7.125 2.25V3H4.875C4.47718 3 4.09564 3.15804 3.81434 3.43934C3.53304 3.72064 3.375 4.10218 3.375 4.5V19.5C3.375 19.8978 3.53304 20.2794 3.81434 20.5607C4.09564 20.842 4.47718 21 4.875 21H19.875C20.2728 21 20.6544 20.842 20.9357 20.5607C21.217 20.2794 21.375 19.8978 21.375 19.5V4.5C21.375 4.10218 21.217 3.72064 20.9357 3.43934C20.6544 3.15804 20.2728 3 19.875 3ZM10.875 17.25C10.875 17.4489 10.796 17.6397 10.6553 17.7803C10.5147 17.921 10.3239 18 10.125 18C9.92609 18 9.73532 17.921 9.59467 17.7803C9.45402 17.6397 9.375 17.4489 9.375 17.25V12.4631L8.96063 12.6713C8.7826 12.7603 8.5765 12.7749 8.38768 12.712C8.19885 12.649 8.04276 12.5137 7.95375 12.3356C7.86474 12.1576 7.85009 11.9515 7.91303 11.7627C7.97597 11.5739 8.11135 11.4178 8.28937 11.3287L9.78937 10.5787C9.90376 10.5215 10.0309 10.4945 10.1587 10.5002C10.2864 10.506 10.4106 10.5443 10.5194 10.6116C10.6282 10.6788 10.718 10.7728 10.7802 10.8845C10.8425 10.9963 10.8751 11.1221 10.875 11.25V17.25ZM16.125 16.5C16.3239 16.5 16.5147 16.579 16.6553 16.7197C16.796 16.8603 16.875 17.0511 16.875 17.25C16.875 17.4489 16.796 17.6397 16.6553 17.7803C16.5147 17.921 16.3239 18 16.125 18H13.125C12.9857 18 12.8492 17.9612 12.7307 17.888C12.6122 17.8148 12.5165 17.71 12.4542 17.5854C12.3919 17.4608 12.3655 17.3214 12.378 17.1826C12.3905 17.0439 12.4414 16.9114 12.525 16.8L15.2231 13.2028C15.2845 13.1211 15.3285 13.0277 15.3525 12.9284C15.3765 12.8291 15.3799 12.7259 15.3626 12.6252C15.3453 12.5245 15.3075 12.4284 15.2517 12.3428C15.1959 12.2572 15.1232 12.1839 15.0381 12.1274C14.9529 12.0709 14.8571 12.0324 14.7566 12.0143C14.656 11.9961 14.5528 11.9987 14.4533 12.0219C14.3538 12.0451 14.26 12.0884 14.1778 12.1491C14.0956 12.2098 14.0267 12.2867 13.9753 12.375C13.9275 12.463 13.8626 12.5406 13.7843 12.6031C13.7061 12.6656 13.6161 12.7118 13.5197 12.739C13.4233 12.7661 13.3224 12.7737 13.2231 12.7613C13.1237 12.7489 13.0278 12.7166 12.9411 12.6665C12.8544 12.6165 12.7785 12.5495 12.7181 12.4696C12.6577 12.3898 12.6139 12.2986 12.5892 12.2015C12.5646 12.1044 12.5597 12.0034 12.5747 11.9044C12.5898 11.8054 12.6245 11.7104 12.6769 11.625C12.9246 11.1963 13.3069 10.8612 13.7644 10.6718C14.2219 10.4824 14.7291 10.4493 15.2074 10.5774C15.6857 10.7056 16.1083 10.988 16.4098 11.3808C16.7113 11.7736 16.8748 12.2548 16.875 12.75C16.8766 13.2391 16.7171 13.7152 16.4213 14.1047L14.625 16.5H16.125ZM4.875 7.5V4.5H7.125V5.25C7.125 5.44891 7.20402 5.63968 7.34467 5.78033C7.48532 5.92098 7.67609 6 7.875 6C8.07391 6 8.26468 5.92098 8.40533 5.78033C8.54598 5.63968 8.625 5.44891 8.625 5.25V4.5H16.125V5.25C16.125 5.44891 16.204 5.63968 16.3447 5.78033C16.4853 5.92098 16.6761 6 16.875 6C17.0739 6 17.2647 5.92098 17.4053 5.78033C17.546 5.63968 17.625 5.44891 17.625 5.25V4.5H19.875V7.5H4.875Z" fill="#3FD8F9"/>
</svg>
