<svg width="25" height="24" viewBox="0 0 25 24" fill="none" xmlns="http://www.w3.org/2000/svg">
<g id="Newspaper">
<path id="Vector" d="M9.125 10.5C9.125 10.3011 9.20402 10.1103 9.34467 9.96967C9.48532 9.82902 9.67609 9.75 9.875 9.75H17.375C17.5739 9.75 17.7647 9.82902 17.9053 9.96967C18.046 10.1103 18.125 10.3011 18.125 10.5C18.125 10.6989 18.046 10.8897 17.9053 11.0303C17.7647 11.171 17.5739 11.25 17.375 11.25H9.875C9.67609 11.25 9.48532 11.171 9.34467 11.0303C9.20402 10.8897 9.125 10.6989 9.125 10.5ZM9.875 14.25H17.375C17.5739 14.25 17.7647 14.171 17.9053 14.0303C18.046 13.8897 18.125 13.6989 18.125 13.5C18.125 13.3011 18.046 13.1103 17.9053 12.9697C17.7647 12.829 17.5739 12.75 17.375 12.75H9.875C9.67609 12.75 9.48532 12.829 9.34467 12.9697C9.20402 13.1103 9.125 13.3011 9.125 13.5C9.125 13.6989 9.20402 13.8897 9.34467 14.0303C9.48532 14.171 9.67609 14.25 9.875 14.25ZM22.625 6V17.25C22.625 17.8467 22.3879 18.419 21.966 18.841C21.544 19.2629 20.9717 19.5 20.375 19.5H3.875C3.28005 19.5 2.70931 19.2644 2.28764 18.8446C1.86598 18.4249 1.62773 17.8553 1.625 17.2603V8.25C1.625 8.05109 1.70402 7.86032 1.84467 7.71967C1.98532 7.57902 2.17609 7.5 2.375 7.5C2.57391 7.5 2.76468 7.57902 2.90533 7.71967C3.04598 7.86032 3.125 8.05109 3.125 8.25V17.25C3.125 17.4489 3.20402 17.6397 3.34467 17.7803C3.48532 17.921 3.67609 18 3.875 18C4.07391 18 4.26468 17.921 4.40533 17.7803C4.54598 17.6397 4.625 17.4489 4.625 17.25V6C4.625 5.60218 4.78304 5.22064 5.06434 4.93934C5.34564 4.65804 5.72718 4.5 6.125 4.5H21.125C21.5228 4.5 21.9044 4.65804 22.1857 4.93934C22.467 5.22064 22.625 5.60218 22.625 6ZM21.125 6H6.125V17.25C6.12537 17.5055 6.08193 17.7592 5.99656 18H20.375C20.5739 18 20.7647 17.921 20.9053 17.7803C21.046 17.6397 21.125 17.4489 21.125 17.25V6Z" fill="#E3DDF3"/>
</g>
</svg>
