<svg width="25" height="24" viewBox="0 0 25 24" fill="none" xmlns="http://www.w3.org/2000/svg">
<path d="M12.875 2.25C10.9466 2.25 9.06157 2.82183 7.45819 3.89317C5.85482 4.96451 4.60513 6.48726 3.86718 8.26884C3.12922 10.0504 2.93614 12.0108 3.31235 13.9021C3.68855 15.7934 4.61715 17.5307 5.98071 18.8943C7.34428 20.2579 9.08156 21.1865 10.9729 21.5627C12.8642 21.9389 14.8246 21.7458 16.6062 21.0078C18.3877 20.2699 19.9105 19.0202 20.9818 17.4168C22.0532 15.8134 22.625 13.9284 22.625 12C22.6223 9.41498 21.5942 6.93661 19.7663 5.10872C17.9384 3.28084 15.46 2.25273 12.875 2.25ZM7.82 18.5156C8.36257 17.6671 9.11001 16.9688 9.99343 16.4851C10.8769 16.0013 11.8678 15.7478 12.875 15.7478C13.8822 15.7478 14.8732 16.0013 15.7566 16.4851C16.64 16.9688 17.3874 17.6671 17.93 18.5156C16.4847 19.6397 14.706 20.2499 12.875 20.2499C11.044 20.2499 9.26532 19.6397 7.82 18.5156ZM9.875 11.25C9.875 10.6567 10.051 10.0766 10.3806 9.58329C10.7102 9.08994 11.1788 8.70542 11.727 8.47836C12.2751 8.2513 12.8783 8.19189 13.4603 8.30764C14.0422 8.4234 14.5768 8.70912 14.9963 9.12868C15.4159 9.54824 15.7016 10.0828 15.8174 10.6647C15.9331 11.2467 15.8737 11.8499 15.6466 12.3981C15.4196 12.9462 15.0351 13.4148 14.5417 13.7444C14.0484 14.0741 13.4683 14.25 12.875 14.25C12.0794 14.25 11.3163 13.9339 10.7537 13.3713C10.1911 12.8087 9.875 12.0456 9.875 11.25ZM19.04 17.4759C18.2035 16.2638 17.0274 15.3261 15.6594 14.7806C16.3942 14.2019 16.9304 13.4085 17.1934 12.5108C17.4565 11.6132 17.4332 10.6559 17.127 9.77207C16.8207 8.88825 16.2466 8.12183 15.4846 7.5794C14.7225 7.03696 13.8104 6.74548 12.875 6.74548C11.9396 6.74548 11.0275 7.03696 10.2654 7.5794C9.50339 8.12183 8.92932 8.88825 8.62305 9.77207C8.31679 10.6559 8.29355 11.6132 8.55657 12.5108C8.81959 13.4085 9.3558 14.2019 10.0906 14.7806C8.72265 15.3261 7.54647 16.2638 6.71 17.4759C5.65304 16.2873 4.9622 14.8185 4.72067 13.2464C4.47915 11.6743 4.69724 10.0658 5.34868 8.61478C6.00012 7.16372 7.05713 5.93192 8.39245 5.06769C9.72776 4.20346 11.2844 3.74367 12.875 3.74367C14.4656 3.74367 16.0223 4.20346 17.3576 5.06769C18.6929 5.93192 19.7499 7.16372 20.4013 8.61478C21.0528 10.0658 21.2709 11.6743 21.0293 13.2464C20.7878 14.8185 20.097 16.2873 19.04 17.4759Z" fill="#E3DDF3"/>
</svg>
