<svg width="25" height="25" viewBox="0 0 25 25" fill="none" xmlns="http://www.w3.org/2000/svg">
<g id="Social Icons">
<path id="Vector" d="M24.4132 18.4174C24.2478 17.9639 23.9291 17.7187 23.5675 17.5226C23.5001 17.4858 23.4388 17.4491 23.3836 17.4246C23.2733 17.3694 23.163 17.3142 23.0527 17.2591C21.925 16.6585 21.0425 15.9108 20.4358 15.016C20.2642 14.7647 20.111 14.4951 19.9884 14.2193C19.9332 14.0722 19.9394 13.9864 19.9761 13.9067C20.0129 13.8455 20.0619 13.7964 20.1232 13.7535C20.3193 13.6248 20.5155 13.4961 20.6503 13.4103C20.8893 13.251 21.0854 13.1284 21.208 13.0426C21.6676 12.7178 21.9924 12.3746 22.1947 11.9885C22.4827 11.4492 22.5195 10.8179 22.2989 10.248C21.9924 9.439 21.2325 8.94259 20.3071 8.94259C20.111 8.94259 19.921 8.96097 19.7249 9.00387C19.6758 9.01613 19.6207 9.02839 19.5716 9.04064C19.5778 8.48907 19.5655 7.90686 19.5165 7.33077C19.3449 5.31446 18.634 4.26035 17.8985 3.42073C17.4266 2.89367 16.8751 2.44628 16.2561 2.09695C15.1407 1.45958 13.8721 1.13477 12.4931 1.13477C11.1142 1.13477 9.85171 1.45958 8.7363 2.09695C8.11732 2.44628 7.56574 2.89367 7.09384 3.42073C6.35841 4.26035 5.65363 5.32059 5.4759 7.33077C5.42687 7.90686 5.41461 8.48907 5.42074 9.04064C5.37171 9.02839 5.32268 9.01613 5.26752 9.00387C5.07754 8.96097 4.88142 8.94259 4.69144 8.94259C3.76602 8.94259 3.00607 9.44513 2.69965 10.248C2.47902 10.8179 2.51579 11.4492 2.80383 11.9885C3.00607 12.3746 3.33089 12.7178 3.79053 13.0426C3.91311 13.1284 4.10309 13.251 4.34824 13.4103C4.47694 13.4961 4.66692 13.6187 4.85691 13.7413C4.92432 13.7842 4.97948 13.8393 5.02238 13.9067C5.05915 13.9864 5.06528 14.0722 5.00399 14.2316C4.88142 14.5012 4.73434 14.7647 4.56274 15.0099C3.96826 15.8801 3.11026 16.6217 2.01937 17.2162C1.44328 17.5226 0.842683 17.7249 0.585282 18.4174C0.395296 18.9383 0.517868 19.5267 1.00203 20.0292C1.17976 20.2131 1.38813 20.3724 1.61489 20.495C2.08679 20.7524 2.58933 20.9546 3.11639 21.0956C3.2267 21.1262 3.32476 21.1691 3.41669 21.2304C3.59442 21.3836 3.5699 21.6165 3.80279 21.9597C3.91923 22.1374 4.07245 22.2907 4.24405 22.4132C4.74047 22.7564 5.29817 22.7748 5.88651 22.7993C6.4197 22.8177 7.0203 22.8422 7.71283 23.069C8.00087 23.1609 8.29505 23.3448 8.63825 23.5593C9.46561 24.0679 10.5933 24.7605 12.487 24.7605C14.3807 24.7605 15.5145 24.0618 16.348 23.5531C16.6912 23.3448 16.9854 23.1609 17.2612 23.069C17.9476 22.8422 18.5543 22.8177 19.0875 22.7993C19.6758 22.7748 20.2335 22.7564 20.73 22.4132C20.9383 22.2661 21.1099 22.0823 21.2325 21.8617C21.4041 21.5736 21.398 21.3714 21.5573 21.2304C21.6431 21.1691 21.7412 21.1262 21.8392 21.1017C22.3663 20.9608 22.8811 20.7585 23.3591 20.495C23.5981 20.3663 23.8188 20.1947 24.0026 19.9924L24.0087 19.9863C24.4868 19.496 24.6032 18.9199 24.4132 18.4174ZM22.734 19.3183C21.7105 19.8821 21.0241 19.8208 20.4971 20.164C20.0436 20.4521 20.3132 21.0772 19.9884 21.3039C19.5839 21.5797 18.395 21.2856 16.8628 21.7942C15.5942 22.211 14.7914 23.4183 12.5115 23.4183C10.2317 23.4183 9.44722 22.2171 8.16022 21.7942C6.62807 21.2856 5.43912 21.5859 5.03464 21.3039C4.70982 21.0772 4.97335 20.4521 4.52596 20.164C3.99278 19.8208 3.3125 19.8821 2.28903 19.3183C1.63327 18.9567 2.00711 18.7361 2.22162 18.6319C5.93554 16.8362 6.53001 14.06 6.55453 13.8516C6.58517 13.6003 6.62194 13.4042 6.34616 13.1529C6.08263 12.9078 4.90594 12.1785 4.57499 11.9517C4.03568 11.5718 3.79666 11.1979 3.97439 10.7321C4.09696 10.4134 4.39726 10.2909 4.70982 10.2909C4.80788 10.2909 4.90594 10.3031 5.00399 10.3215C5.59847 10.4502 6.17456 10.7444 6.5055 10.8302C6.5484 10.8425 6.58517 10.8486 6.62807 10.8486C6.8058 10.8486 6.86709 10.7566 6.85483 10.5544C6.81806 9.90477 6.72613 8.64229 6.83031 7.45947C6.97127 5.83539 7.4922 5.02642 8.11732 4.3155C8.41762 3.9723 9.82106 2.48918 12.5115 2.48918C15.202 2.48918 16.6054 3.96617 16.9057 4.30937C17.5308 5.02029 18.0518 5.82926 18.1927 7.45334C18.2969 8.63616 18.205 9.89865 18.1621 10.5483C18.1498 10.7628 18.2111 10.8424 18.3888 10.8424C18.4317 10.8424 18.4685 10.8363 18.5114 10.8241C18.8423 10.7444 19.4184 10.4441 20.0129 10.3154C20.111 10.2909 20.209 10.2847 20.3071 10.2847C20.6196 10.2847 20.9199 10.4073 21.0425 10.726C21.2202 11.1918 20.9812 11.5656 20.4419 11.9456C20.1171 12.1724 18.9404 12.9017 18.6707 13.1468C18.395 13.3981 18.4317 13.5942 18.4624 13.8455C18.4869 14.0538 19.0814 16.8301 22.7953 18.6258C23.0159 18.7299 23.3836 18.9567 22.734 19.3183Z" fill="#3FD8F9"/>
</g>
</svg>
