<svg width="25" height="24" viewBox="0 0 25 24" fill="none" xmlns="http://www.w3.org/2000/svg">
<path d="M23.575 14.1002C23.4962 14.1593 23.4066 14.2023 23.3112 14.2267C23.2158 14.2511 23.1165 14.2566 23.019 14.2426C22.9215 14.2287 22.8277 14.1957 22.7429 14.1455C22.6582 14.0953 22.5841 14.029 22.525 13.9502C22.073 13.3425 21.4846 12.8495 20.8072 12.5108C20.1298 12.1721 19.3824 11.9972 18.625 12.0002C18.4776 12.0002 18.3333 11.9567 18.2105 11.8751C18.0876 11.7936 17.9914 11.6776 17.9341 11.5417C17.8952 11.4495 17.8751 11.3503 17.8751 11.2502C17.8751 11.15 17.8952 11.0509 17.9341 10.9586C17.9914 10.8227 18.0876 10.7068 18.2105 10.6252C18.3333 10.5437 18.4776 10.5002 18.625 10.5002C19.0459 10.5001 19.4582 10.3821 19.8153 10.1594C20.1724 9.93677 20.4599 9.61844 20.6451 9.24058C20.8304 8.86273 20.9059 8.4405 20.8632 8.02185C20.8205 7.60321 20.6613 7.20493 20.4036 6.87225C20.1459 6.53958 19.8 6.28584 19.4053 6.13987C19.0106 5.9939 18.5829 5.96154 18.1708 6.04646C17.7586 6.13139 17.3785 6.3302 17.0737 6.62031C16.7689 6.91043 16.5515 7.28021 16.4463 7.68767C16.4217 7.78308 16.3785 7.87271 16.3192 7.95144C16.26 8.03017 16.1858 8.09645 16.1009 8.14651C16.016 8.19656 15.9221 8.22941 15.8245 8.24318C15.727 8.25694 15.6276 8.25135 15.5322 8.22673C15.4368 8.20211 15.3472 8.15893 15.2685 8.09967C15.1897 8.04041 15.1234 7.96622 15.0734 7.88134C15.0233 7.79646 14.9905 7.70256 14.9767 7.60498C14.963 7.50741 14.9685 7.40808 14.9932 7.31267C15.1392 6.74765 15.4151 6.22451 15.7988 5.78487C16.1826 5.34523 16.6637 5.00124 17.2038 4.78025C17.744 4.55926 18.3282 4.46738 18.9101 4.51191C19.492 4.55645 20.0554 4.73618 20.5556 5.0368C21.0558 5.33742 21.4789 5.75063 21.7913 6.24356C22.1037 6.73648 22.2968 7.29552 22.3551 7.87618C22.4134 8.45684 22.3354 9.0431 22.1273 9.58831C21.9192 10.1335 21.5867 10.6226 21.1563 11.0167C22.1761 11.4583 23.0627 12.159 23.7278 13.0492C23.7869 13.1282 23.8299 13.2181 23.8542 13.3137C23.8785 13.4093 23.8837 13.5088 23.8695 13.6064C23.8553 13.704 23.822 13.7979 23.7715 13.8826C23.7209 13.9673 23.6542 14.0413 23.575 14.1002ZM18.5238 19.8752C18.5781 19.9605 18.6145 20.056 18.6309 20.1558C18.6473 20.2556 18.6434 20.3577 18.6193 20.456C18.5953 20.5542 18.5516 20.6466 18.4909 20.7275C18.4302 20.8084 18.3538 20.8762 18.2662 20.9269C18.1786 20.9775 18.0817 21.0099 17.9813 21.0221C17.8809 21.0343 17.779 21.026 17.6819 20.9978C17.5847 20.9696 17.4943 20.9221 17.416 20.8581C17.3377 20.794 17.2732 20.7148 17.2263 20.6252C16.7538 19.8252 16.081 19.1622 15.2741 18.7016C14.4672 18.241 13.5541 17.9988 12.625 17.9988C11.6959 17.9988 10.7829 18.241 9.97602 18.7016C9.16912 19.1622 8.49625 19.8252 8.02379 20.6252C7.9769 20.7148 7.91237 20.794 7.83408 20.8581C7.75578 20.9221 7.66534 20.9696 7.56819 20.9978C7.47105 21.026 7.3692 21.0343 7.26879 21.0221C7.16838 21.0099 7.07147 20.9775 6.98389 20.9269C6.89632 20.8762 6.81989 20.8084 6.7592 20.7275C6.69852 20.6466 6.65483 20.5542 6.63076 20.456C6.6067 20.3577 6.60275 20.2556 6.61917 20.1558C6.63559 20.056 6.67202 19.9605 6.72629 19.8752C7.45341 18.6258 8.5621 17.6427 9.88941 17.0702C9.14253 16.4983 8.59363 15.7068 8.31985 14.8069C8.04608 13.907 8.0612 12.9438 8.36308 12.053C8.66497 11.1621 9.23846 10.3882 10.0029 9.84005C10.7674 9.29194 11.6844 8.99716 12.625 8.99716C13.5657 8.99716 14.4827 9.29194 15.2472 9.84005C16.0116 10.3882 16.5851 11.1621 16.887 12.053C17.1889 12.9438 17.204 13.907 16.9302 14.8069C16.6565 15.7068 16.1075 16.4983 15.3607 17.0702C16.688 17.6427 17.7967 18.6258 18.5238 19.8752ZM12.625 16.5002C13.2184 16.5002 13.7984 16.3242 14.2917 15.9946C14.7851 15.6649 15.1696 15.1964 15.3967 14.6482C15.6237 14.1 15.6832 13.4968 15.5674 12.9149C15.4516 12.333 15.1659 11.7984 14.7464 11.3788C14.3268 10.9593 13.7923 10.6736 13.2103 10.5578C12.6284 10.4421 12.0252 10.5015 11.477 10.7285C10.9288 10.9556 10.4603 11.3401 10.1306 11.8335C9.80099 12.3268 9.62504 12.9068 9.62504 13.5002C9.62504 14.2958 9.94111 15.0589 10.5037 15.6215C11.0663 16.1841 11.8294 16.5002 12.625 16.5002ZM7.37504 11.2502C7.37504 11.0513 7.29602 10.8605 7.15537 10.7198C7.01472 10.5792 6.82395 10.5002 6.62504 10.5002C6.20422 10.5001 5.79185 10.3821 5.43476 10.1594C5.07767 9.93677 4.79018 9.61844 4.60494 9.24058C4.41971 8.86273 4.34415 8.4405 4.38685 8.02185C4.42955 7.60321 4.5888 7.20493 4.84652 6.87225C5.10423 6.53958 5.45007 6.28584 5.84476 6.13987C6.23945 5.9939 6.66716 5.96154 7.07932 6.04646C7.49148 6.13139 7.87156 6.3302 8.17639 6.62031C8.48122 6.91043 8.69859 7.28021 8.80379 7.68767C8.85352 7.88036 8.97776 8.04541 9.14918 8.14651C9.3206 8.2476 9.52516 8.27646 9.71785 8.22673C9.91055 8.177 10.0756 8.05276 10.1767 7.88134C10.2778 7.70992 10.3066 7.50536 10.2569 7.31267C10.1109 6.74765 9.83502 6.22451 9.45124 5.78487C9.06746 5.34523 8.58637 5.00124 8.04625 4.78025C7.50612 4.55926 6.92188 4.46738 6.34 4.51191C5.75812 4.55645 5.19467 4.73618 4.69447 5.0368C4.19428 5.33742 3.77114 5.75063 3.45875 6.24356C3.14635 6.73648 2.95331 7.29552 2.89498 7.87618C2.83665 8.45684 2.91465 9.0431 3.12277 9.58831C3.33089 10.1335 3.66338 10.6226 4.09379 11.0167C3.07499 11.4587 2.18946 12.1594 1.52504 13.0492C1.40557 13.2084 1.3542 13.4084 1.38225 13.6054C1.41029 13.8024 1.51544 13.9802 1.67457 14.0997C1.8337 14.2192 2.03377 14.2705 2.23077 14.2425C2.42778 14.2145 2.60557 14.1093 2.72504 13.9502C3.17709 13.3425 3.76549 12.8495 4.44288 12.5108C5.12026 12.1721 5.86771 11.9972 6.62504 12.0002C6.82395 12.0002 7.01472 11.9212 7.15537 11.7805C7.29602 11.6398 7.37504 11.4491 7.37504 11.2502Z" fill="#E3DDF3"/>
</svg>
