<svg width="25" height="24" viewBox="0 0 25 24" fill="none" xmlns="http://www.w3.org/2000/svg">
<path d="M6.63626 13.8559C6.6388 13.9067 6.63099 13.9575 6.61328 14.0052C6.59558 14.0529 6.56836 14.0964 6.53328 14.1333C6.4982 14.1701 6.456 14.1994 6.40923 14.2194C6.36247 14.2394 6.31212 14.2497 6.26126 14.2497H2.12501C1.95573 14.2499 1.79134 14.1929 1.65858 14.0879C1.52581 13.9829 1.43248 13.836 1.39376 13.6712C1.36965 13.5584 1.37076 13.4417 1.39702 13.3294C1.42327 13.2171 1.47402 13.1119 1.54564 13.0215C2.20733 12.144 3.08528 11.4531 4.09376 11.0162C3.651 10.6125 3.31142 10.1086 3.10346 9.54672C2.89549 8.98481 2.8252 8.38124 2.89846 7.78658C2.97172 7.19191 3.18641 6.62346 3.52455 6.12883C3.86268 5.63419 4.31441 5.22779 4.84191 4.94364C5.36941 4.65949 5.95732 4.50588 6.55639 4.49566C7.15547 4.48545 7.74827 4.61893 8.28515 4.88493C8.82203 5.15093 9.28735 5.5417 9.64215 6.02452C9.99695 6.50734 10.2309 7.06814 10.3244 7.65997C10.3365 7.73955 10.3222 7.8209 10.2838 7.89164C10.2454 7.96238 10.1849 8.01863 10.1116 8.05184C9.07131 8.53276 8.19032 9.30119 7.57255 10.2665C6.95477 11.2318 6.62599 12.3536 6.62501 13.4997C6.62501 13.6197 6.62501 13.7378 6.63626 13.8559ZM23.6988 13.0206C23.0386 12.1441 22.1626 11.4535 21.1563 11.0162C21.599 10.6125 21.9386 10.1086 22.1466 9.54672C22.3545 8.98481 22.4248 8.38124 22.3516 7.78658C22.2783 7.19191 22.0636 6.62346 21.7255 6.12883C21.3873 5.63419 20.9356 5.22779 20.4081 4.94364C19.8806 4.65949 19.2927 4.50588 18.6936 4.49566C18.0946 4.48545 17.5018 4.61893 16.9649 4.88493C16.428 5.15093 15.9627 5.5417 15.6079 6.02452C15.2531 6.50734 15.0191 7.06814 14.9256 7.65997C14.9136 7.73955 14.9278 7.8209 14.9662 7.89164C15.0046 7.96238 15.0651 8.01863 15.1384 8.05184C16.1787 8.53276 17.0597 9.30119 17.6775 10.2665C18.2952 11.2318 18.624 12.3536 18.625 13.4997C18.625 13.6197 18.625 13.7378 18.6138 13.8559C18.6112 13.9067 18.619 13.9575 18.6367 14.0052C18.6544 14.0529 18.6817 14.0964 18.7167 14.1333C18.7518 14.1701 18.794 14.1994 18.8408 14.2194C18.8876 14.2394 18.9379 14.2497 18.9888 14.2497H23.125C23.2943 14.2499 23.4587 14.1929 23.5914 14.0879C23.7242 13.9829 23.8175 13.836 23.8563 13.6712C23.8805 13.5582 23.8794 13.4412 23.853 13.3287C23.8265 13.2162 23.7755 13.111 23.7034 13.0206H23.6988ZM15.355 17.0687C16.1018 16.4968 16.6506 15.7053 16.9242 14.8054C17.1979 13.9055 17.1827 12.9424 16.8808 12.0516C16.5788 11.1608 16.0054 10.3869 15.2409 9.83887C14.4765 9.29081 13.5595 8.99607 12.6189 8.99607C11.6783 8.99607 10.7614 9.29081 9.99691 9.83887C9.23247 10.3869 8.65899 11.1608 8.35706 12.0516C8.05512 12.9424 8.03993 13.9055 8.3136 14.8054C8.58727 15.7053 9.13606 16.4968 9.88282 17.0687C8.5577 17.6429 7.4512 18.6262 6.72532 19.8747C6.65949 19.9887 6.62483 20.118 6.62484 20.2497C6.62485 20.3814 6.65952 20.5107 6.72536 20.6247C6.79121 20.7387 6.88591 20.8334 6.99995 20.8992C7.11399 20.9651 7.24334 20.9997 7.37501 20.9997H17.875C18.0067 20.9997 18.136 20.9651 18.2501 20.8992C18.3641 20.8334 18.4588 20.7387 18.5247 20.6247C18.5905 20.5107 18.6252 20.3814 18.6252 20.2497C18.6252 20.118 18.5905 19.9887 18.5247 19.8747C17.7973 18.6254 16.6887 17.642 15.3616 17.0687H15.355Z" fill="#AFF711"/>
</svg>
