<svg width="25" height="25" viewBox="0 0 25 25" fill="none" xmlns="http://www.w3.org/2000/svg">
<g id="Social Icons" clip-path="url(#clip0_4577_5311)">
<path id="Vector" d="M18.1921 12.0835C18.0887 12.0339 17.9837 11.9863 17.8774 11.9406C17.6921 8.52724 15.827 6.57309 12.6952 6.55309C12.681 6.553 12.6669 6.553 12.6528 6.553C10.7795 6.553 9.22164 7.35257 8.26275 8.80755L9.98512 9.98906C10.7014 8.90225 11.8257 8.67056 12.6536 8.67056C12.6631 8.67056 12.6727 8.67056 12.6822 8.67065C13.7134 8.67722 14.4915 8.97704 14.9951 9.56171C15.3616 9.98737 15.6067 10.5756 15.7281 11.3179C14.8139 11.1625 13.8251 11.1148 12.7681 11.1754C9.79059 11.3469 7.87639 13.0834 8.00495 15.4965C8.07019 16.7205 8.67996 17.7735 9.72188 18.4613C10.6028 19.0428 11.7374 19.3272 12.9165 19.2628C14.4738 19.1775 15.6954 18.5833 16.5476 17.497C17.1949 16.672 17.6042 15.6028 17.785 14.2557C18.5271 14.7036 19.0771 15.293 19.3809 16.0015C19.8974 17.2058 19.9275 19.185 18.3126 20.7985C16.8978 22.212 15.197 22.8235 12.6267 22.8423C9.77552 22.8212 7.61922 21.9068 6.21726 20.1246C4.90444 18.4557 4.22596 16.0452 4.20065 12.96C4.22596 9.87469 4.90444 7.46416 6.21726 5.7953C7.61922 4.01307 9.77549 3.09871 12.6266 3.07752C15.4985 3.09887 17.6924 4.01764 19.148 5.80846C19.8618 6.68666 20.3999 7.79106 20.7546 9.07875L22.773 8.54024C22.343 6.95524 21.6664 5.58942 20.7456 4.45671C18.8795 2.1608 16.1503 0.984354 12.6337 0.959961H12.6196C9.1102 0.98427 6.41151 2.16519 4.59854 4.46987C2.98524 6.52076 2.15305 9.37442 2.12509 12.9515L2.125 12.96L2.12509 12.9684C2.15305 16.5455 2.98524 19.3992 4.59854 21.4501C6.41151 23.7547 9.1102 24.9357 12.6196 24.96H12.6337C15.7538 24.9383 17.953 24.1215 19.7647 22.3113C22.1351 19.9432 22.0637 16.9748 21.2825 15.1526C20.722 13.8458 19.6534 12.7845 18.1921 12.0835ZM12.8051 17.1483C11.5001 17.2218 10.1443 16.6361 10.0774 15.3815C10.0279 14.4512 10.7395 13.4132 12.8851 13.2896C13.1309 13.2754 13.372 13.2685 13.6089 13.2685C14.3883 13.2685 15.1174 13.3442 15.7802 13.4891C15.533 16.5768 14.0828 17.0782 12.8051 17.1483Z" fill="#3FD8F9"/>
</g>
<defs>
<clipPath id="clip0_4577_5311">
<rect width="24" height="24" fill="white" transform="translate(0.5 0.959961)"/>
</clipPath>
</defs>
</svg>
