<svg width="25" height="25" viewBox="0 0 25 25" fill="none" xmlns="http://www.w3.org/2000/svg">
<g id="Social Icons" clip-path="url(#clip0_4577_5310)">
<path id="Vector" d="M17.5725 0.959961H13.5278V17.3078C13.5278 19.2556 11.9722 20.8556 10.0363 20.8556C8.10034 20.8556 6.54469 19.2556 6.54469 17.3078C6.54469 15.3948 8.06577 13.8295 9.93257 13.76V9.65563C5.81872 9.72516 2.5 13.0991 2.5 17.3078C2.5 21.5513 5.88786 24.96 10.0708 24.96C14.2538 24.96 17.6416 21.5165 17.6416 17.3078V8.92516C19.1627 10.0382 21.0295 10.6991 23 10.7339V6.62953C19.9579 6.52518 17.5725 4.02083 17.5725 0.959961Z" fill="#3FD8F9"/>
</g>
<defs>
<clipPath id="clip0_4577_5310">
<rect width="24" height="24" fill="white" transform="translate(0.5 0.959961)"/>
</clipPath>
</defs>
</svg>
