<svg width="25" height="25" viewBox="0 0 25 25" fill="none" xmlns="http://www.w3.org/2000/svg">
<g id="Social Icons" clip-path="url(#clip0_4577_5313)">
<path id="Vector" d="M24.2609 8.15977C24.2609 8.15977 24.0266 6.50508 23.3047 5.77852C22.3906 4.82227 21.3688 4.81758 20.9 4.76133C17.5438 4.51758 12.5047 4.51758 12.5047 4.51758H12.4953C12.4953 4.51758 7.45625 4.51758 4.1 4.76133C3.63125 4.81758 2.60938 4.82227 1.69531 5.77852C0.973438 6.50508 0.74375 8.15977 0.74375 8.15977C0.74375 8.15977 0.5 10.1051 0.5 12.0457V13.8645C0.5 15.8051 0.739062 17.7504 0.739062 17.7504C0.739062 17.7504 0.973437 19.4051 1.69062 20.1316C2.60469 21.0879 3.80469 21.0551 4.33906 21.1582C6.26094 21.341 12.5 21.3973 12.5 21.3973C12.5 21.3973 17.5438 21.3879 20.9 21.1488C21.3688 21.0926 22.3906 21.0879 23.3047 20.1316C24.0266 19.4051 24.2609 17.7504 24.2609 17.7504C24.2609 17.7504 24.5 15.8098 24.5 13.8645V12.0457C24.5 10.1051 24.2609 8.15977 24.2609 8.15977ZM10.0203 16.0723V9.32695L16.5031 12.7113L10.0203 16.0723Z" fill="#3FD8F9"/>
</g>
<defs>
<clipPath id="clip0_4577_5313">
<rect width="24" height="24" fill="white" transform="translate(0.5 0.959961)"/>
</clipPath>
</defs>
</svg>
